<?xml version="1.0" standalone="no"?>
<!DOCTYPE svg PUBLIC "-//W3C//DTD SVG 20010904//EN"
 "http://www.w3.org/TR/2001/REC-SVG-20010904/DTD/svg10.dtd">
<svg version="1.0" xmlns="http://www.w3.org/2000/svg"
 width="739.000000pt" height="346.000000pt" viewBox="0 0 739.000000 346.000000"
 preserveAspectRatio="xMidYMid meet">

<g transform="translate(0.000000,346.000000) scale(0.100000,-0.100000)"
fill="#000000" stroke="none">
<path d="M4284 3321 c-17 -10 -126 -112 -242 -226 l-212 -207 -237 57 c-131
32 -300 75 -376 96 l-139 39 -71 -76 c-40 -42 -73 -79 -74 -83 -1 -3 48 -35
110 -70 187 -106 467 -275 467 -281 0 -4 -41 -53 -91 -109 l-91 -103 -165 8
-165 7 -69 -69 -69 -68 156 -63 c86 -34 167 -69 181 -78 32 -22 98 -125 168
-265 31 -63 59 -117 61 -119 2 -2 33 27 68 65 76 80 76 81 50 261 l-16 113
106 104 106 105 63 -97 c88 -134 135 -216 209 -364 34 -71 65 -128 69 -128 3
0 42 39 86 88 l80 87 -91 366 -91 366 191 196 c128 131 199 212 215 244 27 55
31 126 10 166 -29 54 -136 75 -197 38z"/>
<path d="M370 1358 c-88 -25 -129 -89 -130 -200 l0 -68 -60 0 -60 0 0 -80 0
-80 60 0 60 0 0 -265 0 -265 85 0 85 0 0 265 0 265 85 0 85 0 0 75 0 75 -85 0
-85 0 0 44 c0 29 7 52 21 70 18 23 28 26 80 26 l59 0 0 69 0 69 -31 6 c-45 9
-128 6 -169 -6z"/>
<path d="M1014 1356 c-92 -40 -81 -163 16 -185 133 -29 198 133 74 185 -41 17
-50 17 -90 0z"/>
<path d="M5089 1347 c-42 -28 -57 -74 -39 -117 27 -65 129 -82 181 -31 49 50
35 122 -31 156 -40 21 -72 19 -111 -8z"/>
<path d="M670 875 l0 -485 90 0 90 0 0 485 0 485 -90 0 -90 0 0 -485z"/>
<path d="M2040 880 l0 -480 85 0 85 0 0 188 c1 209 9 264 48 305 53 55 151 56
203 1 24 -25 24 -27 27 -260 l3 -234 85 0 85 0 -3 268 -3 267 -28 48 c-15 26
-47 60 -69 75 -35 23 -54 28 -125 31 -75 3 -89 0 -139 -24 -31 -15 -58 -33
-61 -41 -16 -43 -23 5 -23 161 l0 175 -85 0 -85 0 0 -480z"/>
<path d="M6140 880 l0 -480 85 0 85 0 0 208 c0 229 9 272 66 308 39 26 125 25
161 -2 46 -34 52 -70 52 -301 l1 -213 86 0 85 0 -3 263 -3 262 -29 52 c-16 29
-46 64 -69 80 -35 24 -52 28 -124 32 -93 3 -127 -6 -185 -51 l-38 -29 0 176 0
175 -85 0 -85 0 0 -480z"/>
<path d="M2850 1170 l0 -90 -65 0 -65 0 2 -75 2 -75 63 0 63 0 0 -197 c0 -180
2 -200 21 -241 40 -82 140 -118 273 -98 l46 7 0 68 0 69 -66 4 c-102 6 -104
11 -104 219 l0 169 85 0 85 0 0 75 0 75 -85 0 -85 0 0 90 0 90 -85 0 -85 0 0
-90z"/>
<path d="M6940 1170 l0 -90 -60 0 -60 0 0 -75 0 -75 60 0 60 0 0 -182 c0 -101
5 -200 10 -220 25 -88 102 -138 215 -138 114 0 115 1 115 81 l0 69 -56 0 c-48
0 -59 4 -85 29 l-29 29 0 166 0 166 85 0 85 0 0 75 0 75 -85 0 -85 0 0 90 0
90 -85 0 -85 0 0 -90z"/>
<path d="M4563 1090 c-52 -11 -113 -42 -156 -79 -97 -85 -133 -274 -82 -423
50 -145 222 -230 393 -194 83 17 126 41 173 93 28 33 59 90 59 110 0 4 -37 7
-82 5 -73 -3 -85 -7 -120 -35 -49 -39 -133 -48 -188 -20 -42 22 -80 76 -80
114 l0 29 241 0 242 0 -5 83 c-3 54 -12 99 -27 133 -27 62 -101 136 -161 163
-54 23 -149 33 -207 21z m137 -158 c35 -17 80 -73 80 -98 0 -11 -31 -14 -151
-14 l-150 0 7 23 c28 90 128 132 214 89z"/>
<path d="M970 740 l0 -350 90 0 90 0 0 350 0 350 -90 0 -90 0 0 -350z"/>
<path d="M1445 1072 c-72 -23 -155 -108 -178 -183 -21 -69 -22 -207 -2 -275
51 -171 311 -256 439 -144 18 17 37 30 41 30 13 0 -3 -118 -20 -151 -28 -52
-69 -71 -153 -67 -71 3 -75 5 -108 41 l-34 37 -85 0 c-47 0 -85 -2 -85 -5 0
-17 34 -82 59 -114 82 -103 290 -141 427 -77 64 30 111 78 143 146 l26 55 3
359 3 358 -53 -6 c-29 -3 -68 -6 -85 -6 -30 0 -33 -3 -33 -32 l0 -31 -24 22
c-59 56 -184 75 -281 43z m233 -162 c65 -40 90 -146 53 -225 -24 -52 -56 -81
-106 -94 -100 -26 -180 30 -200 140 -13 69 33 167 89 189 41 17 129 11 164
-10z"/>
<path d="M5060 745 l0 -345 90 0 90 0 0 345 0 345 -90 0 -90 0 0 -345z"/>
<path d="M5505 1066 c-64 -29 -127 -100 -148 -167 -19 -58 -23 -212 -7 -271
20 -71 70 -130 141 -166 112 -57 232 -54 303 8 18 17 37 30 41 30 14 0 -4
-122 -23 -153 -24 -42 -76 -67 -140 -67 -59 0 -95 15 -131 54 -23 24 -31 26
-108 26 -54 0 -83 -4 -83 -11 0 -6 12 -34 27 -61 33 -61 98 -113 166 -133 65
-19 199 -19 264 0 68 20 143 88 174 157 24 52 24 58 27 411 l3 357 -85 0 -86
0 0 -30 c0 -30 -13 -40 -26 -19 -3 6 -30 22 -58 35 -71 33 -180 33 -251 0z
m255 -151 c73 -38 101 -152 58 -234 -35 -68 -66 -86 -148 -86 -64 0 -71 2
-103 33 -69 67 -75 186 -12 261 42 49 137 61 205 26z"/>
<path d="M3240 1078 c0 -2 49 -156 109 -343 l108 -340 88 0 88 0 65 213 c36
116 68 212 71 212 3 0 35 -97 71 -215 l65 -216 88 3 89 3 104 335 c57 184 103
338 104 343 0 4 -40 7 -88 7 l-89 0 -63 -215 c-35 -118 -67 -212 -70 -208 -4
5 -17 44 -29 88 -12 44 -40 137 -62 208 l-40 127 -82 0 -83 0 -12 -47 c-38
-142 -116 -383 -123 -376 -6 7 -129 405 -129 418 0 3 -40 5 -90 5 -49 0 -90
-1 -90 -2z"/>
</g>
</svg>
